mtllib veach_room.mtl
o bidir_room
v -2.744896 1.954166 -1.971490
v 1.646064 1.954165 -2.051490
v 1.646066 1.954165 -1.971490
v -2.744896 1.954166 -2.051490
v -2.744895 -1.941462 -1.971490
v 1.646064 -1.941463 -2.051490
v 1.646065 -1.941463 -1.971490
v -2.744897 -1.941462 -2.051490
v -2.744897 -1.941462 -2.051490
v -2.744896 1.954166 -1.971490
v -2.744895 -1.941462 -1.971490
v -2.744896 1.954166 -2.051490
v -2.744896 1.954166 -1.971490
v 1.646065 -1.941463 -1.971490
v 1.646066 1.954165 -1.971490
v -2.744895 -1.941462 -1.971490
v 1.646065 -1.941463 -1.971490
v 1.646064 1.954165 -2.051490
v 1.646066 1.954165 -1.971490
v 1.646064 -1.941463 -2.051490
v -2.744896 1.954166 -2.051490
v 1.646064 -1.941463 -2.051490
v 1.646064 1.954165 -2.051490
v -2.744897 -1.941462 -2.051490
v -2.744896 1.795156 -2.051490
v -2.744896 1.954166 -1.971490
v -2.744896 1.795156 -1.971490
v -2.744896 1.954166 -2.051490
v 1.646064 1.795155 -2.051490
v 1.646066 1.954165 -1.971490
v 1.646066 1.795155 -1.971490
v 1.646064 1.954165 -2.051490
v -2.744897 -1.852908 -2.051490
v -2.744895 -1.941462 -1.971490
v -2.744895 -1.852908 -1.971490
v -2.744897 -1.941462 -2.051490
v -2.744896 1.795156 -1.971490
v -2.744897 -1.852908 -2.051490
v -2.744895 -1.852908 -1.971490
v -2.744896 1.795156 -2.051490
v 1.646064 -1.852909 -2.051490
v 1.646065 -1.941463 -1.971490
v 1.646065 -1.852909 -1.971490
v 1.646064 -1.941463 -2.051490
v 1.646065 -1.852909 -1.971490
v 1.646064 1.795155 -2.051490
v 1.646066 1.795155 -1.971490
v 1.646064 -1.852909 -2.051490
v 1.646064 1.954165 -2.051490
v 1.522548 1.954165 -1.971490
v 1.646066 1.954165 -1.971490
v 1.522547 1.954165 -2.051490
v 1.522548 -1.941463 -1.971490
v 1.522546 -1.941463 -2.051490
v 1.646064 -1.941463 -2.051490
v 1.522546 -1.852909 -2.051490
v 1.646064 -1.852909 -2.051490
v 1.522546 -1.941463 -2.051490
v -2.618621 1.954166 -1.971490
v -2.618621 1.954166 -2.051490
v -2.744896 1.954166 -1.971490
v -2.618621 1.954166 -2.051490
v -2.618621 1.954166 -1.971490
v -2.744896 1.954166 -2.051490
v -2.618621 -1.941462 -1.971490
v -2.618624 -1.941462 -2.051490
v -2.744896 1.795156 -2.051490
v -2.618621 1.954166 -2.051490
v -2.744896 1.954166 -2.051490
v -2.618621 1.795156 -2.051490
v -2.744897 -1.852908 -2.051490
v -2.618621 1.795156 -2.051490
v -2.744896 1.795156 -2.051490
v -2.618624 -1.852908 -2.051490
v -2.618624 -1.941462 -2.051490
v -2.744897 -1.852908 -2.051490
v -2.618624 -1.852908 -2.051490
v -2.744897 -1.941462 -2.051490
v 1.522546 -1.941463 -2.051490
v -2.618624 -1.852908 -2.051490
v 1.522546 -1.852909 -2.051490
v -2.618624 -1.941462 -2.051490
v -2.744896 1.954166 2.208494
v -2.744896 1.795156 2.208494
v -2.744896 1.795156 -1.971490
v -2.744895 -1.852908 2.208494
v -2.744896 1.795156 2.208494
v -2.744895 -1.852908 -1.971490
v -2.744895 -1.852908 -1.971490
v -2.744895 -1.941462 2.208494
v -2.744895 -1.852908 2.208494
v -2.744895 -1.941462 -1.971490
v -2.744895 -1.941462 2.208494
v -2.618621 -1.941462 2.208494
v -2.744896 1.954166 -1.971490
v -2.618621 1.954166 2.208494
v -2.618621 1.954166 -1.971490
v -2.744896 1.954166 2.208494
v -2.618621 1.954166 -1.971490
v -2.618621 1.795156 2.208494
v -2.618621 1.954166 2.208494
v -2.618621 1.795156 -1.971490
v -2.618621 -1.941462 -1.971490
v -2.618621 -1.852908 2.208494
v -2.618621 -1.941462 2.208494
v -2.618621 -1.852908 -1.971490
v -2.618621 -1.852908 -1.971490
v -2.618621 1.795156 2.208494
v -2.618621 -1.852908 2.208494
v -2.618621 1.795156 -1.971490
v -2.744895 -1.941462 2.208494
v -2.618621 -1.852908 2.208494
v -2.744895 -1.852908 2.208494
v -2.618621 -1.941462 2.208494
v -2.744896 1.795156 2.208494
v -2.618621 1.954166 2.208494
v -2.744896 1.954166 2.208494
v -2.618621 1.795156 2.208494
v 1.522548 -1.941463 -1.971490
v 1.522548 -1.852909 2.208494
v 1.522548 -1.941463 2.208494
v 1.522548 -1.852909 -1.971490
v 1.646065 -1.852909 -1.971490
v 1.646065 -1.941463 2.208494
v 1.646065 -1.852909 2.208494
v 1.646065 -1.941463 -1.971490
v 1.646066 1.954165 2.208494
v 1.522548 1.954165 2.208494
v 1.522548 -1.941463 -1.971490
v 1.646065 -1.941463 2.208494
v 1.646065 -1.941463 -1.971490
v 1.522548 -1.941463 2.208494
v -2.618621 1.795156 2.208494
v 1.522548 1.795155 -1.971490
v 1.522548 1.795155 2.208494
v -2.618621 1.795156 -1.971490
v -2.618621 1.954166 2.208494
v 1.522548 1.795155 -1.971490
v 1.522548 -1.852909 2.208494
v 1.522548 1.795155 2.208494
v 1.522548 -1.852909 -1.971490
v 1.646066 1.954165 -1.971490
v 1.646065 -1.941463 2.208494
v 1.646066 1.954165 2.208494
v 1.646065 -1.941463 -1.971490
v 1.522548 1.795155 2.208494
v 1.522548 1.954165 2.208494
v 1.646066 1.954165 2.208494
v 1.646066 1.795155 2.208494
v 1.522548 -1.941463 2.208494
v 1.646065 -1.852909 2.208494
v 1.522548 -1.852909 2.208494
v 1.646065 -1.941463 2.208494
v 1.522548 -1.852909 2.208494
v 1.646066 1.795155 2.208494
v 1.522548 1.795155 2.208494
v 1.646065 -1.852909 2.208494
v -2.618621 -1.852908 -1.971490
v 1.522548 -1.852909 2.208494
v 1.522548 -1.852909 -1.971490
v -2.618621 -1.852908 2.208494
v -2.618621 -1.941462 -1.971490
v 1.522548 -1.941463 2.208494
v 1.522548 -1.941463 -1.971490
v -2.618621 -1.941462 2.208494
vn -0.0000 -1.0000 -0.0000
vn 1.0000 -0.0000 -0.0000
vn -0.0000 -0.0000 1.0000
vn -1.0000 -0.0000 -0.0000
vn -0.0000 1.0000 -0.0000
vn -0.0000 -0.0000 -1.0000
s 0
f 1//1 2//1 3//1
f 2//1 1//1 4//1
f 5//1 6//1 7//1
f 6//1 5//1 8//1
f 9//2 10//2 11//2
f 10//2 9//2 12//2
f 13//3 14//3 15//3
f 14//3 13//3 16//3
f 17//2 18//2 19//2
f 18//2 17//2 20//2
f 21//3 22//3 23//3
f 22//3 21//3 24//3
f 25//2 26//2 27//2
f 26//2 25//2 28//2
f 29//2 30//2 31//2
f 30//2 29//2 32//2
f 33//4 34//4 35//4
f 34//4 33//4 36//4
f 37//4 38//4 39//4
f 38//4 37//4 40//4
f 41//4 42//4 43//4
f 42//4 41//4 44//4
f 45//2 46//2 47//2
f 46//2 45//2 48//2
f 49//5 50//5 51//5
f 50//5 49//5 52//5
f 53//1 6//1 7//1
f 6//1 53//1 54//1
f 55//6 56//6 57//6
f 56//6 55//6 58//6
f 52//5 59//5 50//5
f 59//5 52//5 60//5
f 61//1 62//1 63//1
f 62//1 61//1 64//1
f 65//1 54//1 53//1
f 54//1 65//1 66//1
f 5//1 66//1 65//1
f 66//1 5//1 8//1
f 67//3 68//3 69//3
f 68//3 67//3 70//3
f 71//3 72//3 73//3
f 72//3 71//3 74//3
f 75//6 76//6 77//6
f 76//6 75//6 78//6
f 79//6 80//6 81//6
f 80//6 79//6 82//6
f 27//2 83//2 84//2
f 83//2 27//2 26//2
f 85//4 86//4 87//4
f 86//4 85//4 88//4
f 89//4 90//4 91//4
f 90//4 89//4 92//4
f 93//1 65//1 94//1
f 65//1 93//1 5//1
f 95//5 96//5 97//5
f 96//5 95//5 98//5
f 99//4 100//4 101//4
f 100//4 99//4 102//4
f 103//2 104//2 105//2
f 104//2 103//2 106//2
f 107//2 108//2 109//2
f 108//2 107//2 110//2
f 111//3 112//3 113//3
f 112//3 111//3 114//3
f 115//3 116//3 117//3
f 116//3 115//3 118//3
f 113//3 118//3 115//3
f 118//3 113//3 112//3
f 119//2 120//2 121//2
f 120//2 119//2 122//2
f 123//4 124//4 125//4
f 124//4 123//4 126//4
f 50//5 127//5 51//5
f 127//5 50//5 128//5
f 129//5 130//5 131//5
f 130//5 129//5 132//5
f 133//1 134//1 135//1
f 134//1 133//1 136//1
f 59//5 128//5 50//5
f 128//5 59//5 137//5
f 138//4 139//4 140//4
f 139//4 138//4 141//4
f 142//4 143//4 144//4
f 143//4 142//4 145//4
f 116//3 146//3 147//3
f 146//3 116//3 118//3
f 146//3 148//3 147//3
f 148//3 146//3 149//3
f 150//3 151//3 152//3
f 151//3 150//3 153//3
f 154//3 155//3 156//3
f 155//3 154//3 157//3
f 158//5 159//5 160//5
f 159//5 158//5 161//5
f 162//5 163//5 164//5
f 163//5 162//5 165//5
f 112//3 150//3 152//3
f 150//3 112//3 114//3
