# Blender 4.0.2
# www.blender.org
mtllib veach_table.mtl
o bidir_tableLeg
v -0.757954 -0.739955 0.028253
v -0.744443 -1.898624 0.057656
v -0.757955 -1.898624 0.028253
v -0.747544 -0.739955 0.048685
v -0.774169 -0.739955 0.012039
v -0.774170 -1.898624 0.012039
v -0.794601 -1.898624 0.001628
v -0.794600 -0.739955 0.001629
v -0.830925 -1.898624 -0.001474
v -0.826740 -0.739955 -0.002136
v -0.860329 -1.898624 0.012039
v -0.860328 -0.739955 0.012039
v -0.882265 -0.739955 0.035827
v -0.884189 -1.898624 0.039602
v -0.890540 -0.739955 0.071333
v -0.890541 -1.898624 0.071333
v -0.884188 -0.739955 0.103063
v -0.882266 -1.898624 0.106839
v -0.860328 -0.739955 0.130627
v -0.860329 -1.898624 0.130627
v -0.830925 -0.739955 0.144139
v -0.826741 -1.898624 0.144802
v -0.794600 -0.739955 0.141037
v -0.794601 -1.898624 0.141037
v -0.774169 -0.739955 0.130627
v -0.774170 -1.898624 0.130627
v -0.757954 -0.739955 0.114412
v -0.757955 -1.898624 0.114412
v -0.744442 -0.739955 0.085010
v -0.747545 -1.898625 0.093981
v 1.270743 -0.739956 0.028253
v 1.284254 -1.898625 0.057657
v 1.270742 -1.898625 0.028253
v 1.284918 -0.739956 0.061842
v 1.254528 -0.739956 0.012039
v 1.254528 -1.898625 0.012039
v 1.234096 -1.898625 0.001629
v 1.234097 -0.739956 0.001629
v 1.211448 -1.898625 -0.001959
v 1.211449 -0.739956 -0.001959
v 1.175943 -1.898625 0.006316
v 1.188801 -0.739956 0.001629
v 1.168369 -0.739956 0.012039
v 1.146432 -0.739956 0.035827
v 1.144508 -1.898625 0.039603
v 1.138157 -0.739956 0.071333
v 1.138157 -1.898625 0.071333
v 1.141745 -0.739956 0.093981
v 1.141744 -1.898625 0.093981
v 1.152155 -0.739956 0.114413
v 1.152154 -1.898625 0.114413
v 1.168369 -0.739956 0.130627
v 1.168369 -1.898625 0.130627
v 1.188801 -0.739956 0.141037
v 1.188800 -1.898625 0.141037
v 1.211449 -0.739956 0.144624
v 1.211448 -1.898625 0.144624
v 1.243179 -0.739956 0.138273
v 1.246953 -1.898625 0.136350
v 1.276466 -0.739956 0.106838
v 1.278388 -1.898625 0.103063
v 1.270743 -0.739956 -1.380643
v 1.281152 -1.898625 -1.360211
v 1.270742 -1.898625 -1.380643
v 1.281153 -0.739956 -1.360211
v 1.243178 -1.898625 -1.404503
v 1.246954 -0.739956 -1.402580
v 1.211448 -1.898625 -1.410855
v 1.211449 -0.739955 -1.410855
v 1.175943 -1.898625 -1.402580
v 1.188800 -0.739955 -1.407267
v 1.168369 -0.739955 -1.396857
v 1.146432 -0.739955 -1.373069
v 1.144508 -1.898625 -1.369294
v 1.138157 -0.739955 -1.337563
v 1.138157 -1.898625 -1.337563
v 1.141744 -0.739955 -1.314915
v 1.141744 -1.898625 -1.314915
v 1.152155 -0.739955 -1.294484
v 1.152154 -1.898625 -1.294483
v 1.175943 -0.739955 -1.272547
v 1.179718 -1.898625 -1.270623
v 1.211449 -0.739956 -1.264272
v 1.211448 -1.898625 -1.264272
v 1.234096 -1.898625 -1.267859
v 1.234097 -0.739956 -1.267859
v 1.265307 -1.898625 -1.286700
v 1.254528 -0.739956 -1.278269
v 1.276465 -0.739956 -1.302058
v 1.281152 -1.898625 -1.314915
v 1.284740 -0.739956 -1.337563
v 1.284739 -1.898625 -1.337563
v -0.750309 -0.739955 -1.369293
v -0.752233 -1.898624 -1.373069
v -0.781743 -0.739955 -1.402580
v -0.785519 -1.898624 -1.404503
v -0.817249 -1.898624 -1.410855
v -0.817249 -0.739955 -1.410855
v -0.852755 -1.898624 -1.402580
v -0.839897 -0.739955 -1.407267
v -0.868111 -0.739955 -1.391422
v -0.884190 -1.898624 -1.369293
v -0.886953 -0.739955 -1.360211
v -0.890540 -0.739955 -1.337563
v -0.890541 -1.898624 -1.337563
v -0.886953 -0.739955 -1.314915
v -0.882266 -1.898624 -1.302058
v -0.876543 -0.739955 -1.294484
v -0.852754 -0.739955 -1.272547
v -0.848980 -1.898624 -1.270623
v -0.817249 -0.739955 -1.264272
v -0.817249 -1.898624 -1.264272
v -0.785518 -0.739955 -1.270623
v -0.781744 -1.898624 -1.272547
v -0.757955 -0.739955 -1.294484
v -0.757955 -1.898624 -1.294484
v -0.747544 -0.739955 -1.314915
v -0.747545 -1.898624 -1.314915
v -0.743957 -0.739955 -1.337563
v -0.743958 -1.898624 -1.337563
vn 0.8092 -0.0006 -0.5875
vn 0.9850 -0.0010 -0.1726
vn 0.8207 -0.0000 -0.5713
vn 0.9613 0.0004 -0.2756
vn 0.5878 -0.0000 -0.8090
vn 0.2749 -0.0004 -0.9615
vn 0.2897 -0.0000 -0.9571
vn -0.1722 -0.0004 -0.9851
vn -0.1406 0.0004 -0.9901
vn -0.6002 -0.0004 -0.7999
vn -0.5752 0.0004 -0.8180
vn -0.8836 0.0004 -0.4682
vn -0.8981 -0.0004 -0.4397
vn -0.9999 0.0004 -0.0154
vn -0.9999 -0.0004 0.0154
vn -0.8981 0.0004 0.4397
vn -0.8836 -0.0004 0.4682
vn -0.6002 0.0004 0.7999
vn -0.5752 -0.0004 0.8180
vn -0.1722 0.0004 0.9851
vn -0.1406 -0.0004 0.9901
vn 0.2749 0.0004 0.9615
vn 0.2897 -0.0000 0.9571
vn 0.5878 -0.0000 0.8090
vn 0.8207 -0.0000 0.5713
vn 0.8092 0.0006 0.5875
vn 0.9850 0.0010 0.1726
vn 0.9613 -0.0004 0.2756
vn 0.8295 0.0004 -0.5586
vn 0.9885 -0.0005 -0.1509
vn 0.9943 0.0010 -0.1067
vn 0.3090 -0.0000 -0.9511
vn -0.0355 -0.0007 -0.9994
vn -0.0000 -0.0000 -1.0000
vn -0.4983 -0.0013 -0.8670
vn -0.3086 0.0007 -0.9512
vn -0.6048 -0.0000 -0.7964
vn -0.8834 -0.0003 -0.4686
vn -0.8884 -0.0005 -0.4590
vn -0.9994 0.0004 -0.0357
vn -0.9998 -0.0000 -0.0202
vn -0.9511 -0.0000 0.3090
vn -0.8090 -0.0000 0.5878
vn -0.5878 -0.0000 0.8090
vn -0.3090 -0.0000 0.9511
vn 0.0202 -0.0000 0.9998
vn 0.0357 -0.0004 0.9994
vn 0.4590 0.0005 0.8884
vn 0.4981 -0.0010 0.8671
vn 0.8777 0.0011 0.4793
vn 0.9036 -0.0011 0.4283
vn 0.7970 -0.0000 -0.6040
vn 0.9511 -0.0000 -0.3090
vn 0.7875 -0.0004 -0.6163
vn 0.4397 -0.0004 -0.8981
vn 0.4682 0.0004 -0.8836
vn -0.0153 -0.0007 -0.9999
vn 0.0357 0.0004 -0.9994
vn -0.7970 -0.0000 0.6040
vn -0.7875 -0.0004 0.6163
vn -0.4682 0.0004 0.8836
vn -0.4397 -0.0004 0.8981
vn -0.0357 0.0004 0.9994
vn -0.0202 -0.0000 0.9998
vn 0.3426 -0.0007 0.9395
vn 0.3090 -0.0000 0.9511
vn 0.7180 -0.0017 0.6960
vn 0.6035 0.0009 0.7973
vn 0.8838 0.0017 0.4678
vn 0.9448 -0.0009 0.3276
vn 0.9994 0.0007 0.0355
vn 1.0000 -0.0000 -0.0000
vn 0.4981 0.0010 -0.8671
vn 0.8671 -0.0010 -0.4981
vn 0.4590 -0.0005 -0.8884
vn 0.8884 0.0005 -0.4590
vn -0.4977 -0.0023 -0.8673
vn -0.3276 0.0009 -0.9448
vn -0.6959 0.0020 -0.7181
vn -0.8887 -0.0015 -0.4584
vn -0.9397 0.0004 -0.3421
vn -1.0000 -0.0006 -0.0004
vn -0.9999 -0.0007 0.0153
vn -0.9512 0.0007 0.3086
vn -0.8670 -0.0013 0.4983
vn -0.7964 -0.0000 0.6048
vn -0.4686 -0.0003 0.8834
vn -0.4590 -0.0005 0.8884
vn -0.0154 0.0004 0.9999
vn 0.0154 -0.0004 0.9999
vn 0.4397 0.0004 0.8982
vn 0.4682 -0.0004 0.8836
vn 0.7875 0.0004 0.6163
vn 0.7970 -0.0000 0.6040
vn 0.9511 -0.0000 0.3090
vn 0.9998 -0.0000 -0.0202
vn 0.9994 -0.0004 -0.0357
s 1
f 1//1 2//2 3//3
f 4//4 2//2 1//1
f 5//5 3//3 6//5
f 1//1 3//3 5//5
f 6//5 7//6 8//7
f 6//5 8//7 5//5
f 7//6 9//8 10//9
f 7//6 10//9 8//7
f 9//8 11//10 12//11
f 9//8 12//11 10//9
f 13//12 11//10 14//13
f 12//11 11//10 13//12
f 15//14 14//13 16//15
f 13//12 14//13 15//14
f 17//16 16//15 18//17
f 15//14 16//15 17//16
f 19//18 18//17 20//19
f 17//16 18//17 19//18
f 21//20 20//19 22//21
f 21//20 19//18 20//19
f 23//22 22//21 24//23
f 23//22 21//20 22//21
f 25//24 24//23 26//24
f 25//24 23//22 24//23
f 27//25 26//24 28//26
f 27//25 25//24 26//24
f 29//27 28//26 30//28
f 27//25 28//26 29//27
f 29//27 30//28 2//2
f 29//27 2//2 4//4
f 31//29 32//30 33//3
f 34//31 32//30 31//29
f 35//5 33//3 36//5
f 31//29 33//3 35//5
f 36//5 37//32 38//32
f 36//5 38//32 35//5
f 37//32 39//33 40//34
f 37//32 40//34 38//32
f 39//33 41//35 42//36
f 39//33 42//36 40//34
f 41//35 43//37 42//36
f 44//38 41//35 45//39
f 43//37 41//35 44//38
f 46//40 45//39 47//41
f 44//38 45//39 46//40
f 48//42 47//41 49//42
f 46//40 47//41 48//42
f 50//43 49//42 51//43
f 48//42 49//42 50//43
f 52//44 51//43 53//44
f 50//43 51//43 52//44
f 54//45 53//44 55//45
f 54//45 52//44 53//44
f 56//46 55//45 57//47
f 56//46 54//45 55//45
f 58//48 57//47 59//49
f 58//48 56//46 57//47
f 60//50 59//49 61//51
f 60//50 58//48 59//49
f 34//31 61//51 32//30
f 60//50 61//51 34//31
f 62//52 63//53 64//54
f 65//53 63//53 62//52
f 64//54 66//55 67//56
f 62//52 64//54 67//56
f 66//55 68//57 69//58
f 66//55 69//58 67//56
f 68//57 70//35 71//36
f 68//57 71//36 69//58
f 70//35 72//37 71//36
f 73//38 70//35 74//39
f 72//37 70//35 73//38
f 75//40 74//39 76//41
f 73//38 74//39 75//40
f 77//42 76//41 78//42
f 75//40 76//41 77//42
f 79//59 78//42 80//60
f 77//42 78//42 79//59
f 81//61 80//60 82//62
f 79//59 80//60 81//61
f 83//63 82//62 84//64
f 83//63 81//61 82//62
f 85//65 86//66 84//64
f 86//66 83//63 84//64
f 87//67 88//68 85//65
f 88//68 86//66 85//65
f 89//69 88//68 87//67
f 89//69 87//67 90//70
f 91//71 90//70 92//72
f 89//69 90//70 91//71
f 65//53 92//72 63//53
f 91//71 92//72 65//53
f 95//73 94//74 96//75
f 93//76 94//74 95//73
f 96//75 97//57 98//58
f 96//75 98//58 95//73
f 97//57 99//77 100//78
f 97//57 100//78 98//58
f 99//77 101//79 100//78
f 101//79 99//77 102//80
f 101//79 102//80 103//81
f 104//82 102//80 105//83
f 103//81 102//80 104//82
f 106//84 105//83 107//85
f 104//82 105//83 106//84
f 106//84 107//85 108//86
f 109//87 107//85 110//88
f 108//86 107//85 109//87
f 111//89 110//88 112//90
f 111//89 109//87 110//88
f 113//91 112//90 114//92
f 113//91 111//89 112//90
f 115//93 114//92 116//94
f 115//93 113//91 114//92
f 117//95 116//94 118//95
f 115//93 116//94 117//95
f 119//96 118//95 120//97
f 117//95 118//95 119//96
f 93//76 120//97 94//74
f 119//96 120//97 93//76
o bidir_tableSurface
v 1.369540 -0.702754 0.279272
v -0.949543 -0.802939 0.279272
v 1.369540 -0.802940 0.279272
v -0.949543 -0.702753 0.279272
v 1.369540 -0.702754 0.279272
v 1.369540 -0.702754 -1.524726
v -0.949543 -0.702753 0.279272
v -0.949543 -0.702753 0.279272
v 1.369540 -0.702754 -1.524726
v -0.949543 -0.702753 -1.524726
v 1.369540 -0.802940 -1.524726
v -0.949543 -0.702753 -1.524726
v 1.369540 -0.702754 -1.524726
v -0.949543 -0.802939 -1.524726
v 1.369540 -0.802940 0.279272
v -0.949543 -0.802939 -1.524726
v 1.369540 -0.802940 -1.524726
v -0.949543 -0.802939 0.279272
v 1.369540 -0.702754 -1.524726
v 1.369540 -0.802940 0.279272
v 1.369540 -0.802940 -1.524726
v 1.369540 -0.702754 0.279272
v -0.949543 -0.702753 0.279272
v -0.949543 -0.802939 -1.524726
v -0.949543 -0.802939 0.279272
v -0.949543 -0.702753 -1.524726
vn -0.0000 -0.0000 1.0000
vn -0.0000 1.0000 -0.0000
vn -0.0000 -0.0000 -1.0000
vn -0.0000 -1.0000 -0.0000
vn 1.0000 -0.0000 -0.0000
vn -1.0000 -0.0000 -0.0000
s 0
f 121//98 122//98 123//98
f 121//98 124//98 122//98
f 125//99 126//99 127//99
f 128//99 129//99 130//99
f 131//100 132//100 133//100
f 131//100 134//100 132//100
f 135//101 136//101 137//101
f 138//101 136//101 135//101
f 139//102 140//102 141//102
f 139//102 142//102 140//102
f 143//103 144//103 145//103
f 146//103 144//103 143//103
